<svg width="64" height="64" viewBox="0 0 64 64" fill="none" xmlns="http://www.w3.org/2000/svg">
  <!-- Background circle -->
  <circle cx="32" cy="32" r="30" fill="#2563eb"/>
  
  <!-- Main comment bubble -->
  <path
    d="M14 20C14 17.7909 15.7909 16 18 16H46C48.2091 16 50 17.7909 50 20V36C50 38.2091 48.2091 40 46 40H24L14 50V20Z"
    fill="white"
  />
  
  <!-- Inner analysis elements - dots representing data points -->
  <circle cx="24" cy="28" r="2" fill="#2563eb" />
  <circle cx="32" cy="28" r="2" fill="#2563eb" />
  <circle cx="40" cy="28" r="2" fill="#2563eb" />
  
  <!-- AI sparkle indicator -->
  <path d="M44 8L46 12L50 10L48 14L52 16L48 18L50 22L46 20L44 24L42 20L38 22L40 18L36 16L40 14L38 10L42 12L44 8Z" fill="#60a5fa" />
  
  <!-- Subtle analysis chart line -->
  <path
    d="M18 32L22 30L26 34L30 28L34 32L38 26"
    stroke="#2563eb"
    stroke-width="2"
    stroke-linecap="round"
    stroke-linejoin="round"
    fill="none"
  />
</svg>